PathFileType	4	(X/Y/Z)	AB08\squats_1.trc
DataRate	CameraRate	NumFrames	NumMarkers	Units	OrigDataRate	OrigDataStartFrame	OrigNumFrames
200.000000	200.000000	6	35	mm	200.000000	39	317
Frame#	Time	C7			LSHO			STRN			LASI			RASI			RPSI			LGTR			RGTR			LTHC			LTHL			LTHR			LKNE			LMKNE			LSHC			LSHL			LSHR			LANK			LMANK			LMT1			LMT5			LCAL			RTHC			RTHL			RTHR			RKNE			RMKNE			RSHC			RSHL			RSHR			RANK			RMANK			RMT1			RMT5			RCAL			LPSI			
		X1	Y1	Z1	X2	Y2	Z2	X3	Y3	Z3	X4	Y4	Z4	X5	Y5	Z5	X6	Y6	Z6	X7	Y7	Z7	X8	Y8	Z8	X9	Y9	Z9	X10	Y10	Z10	X11	Y11	Z11	X12	Y12	Z12	X13	Y13	Z13	X14	Y14	Z14	X15	Y15	Z15	X16	Y16	Z16	X17	Y17	Z17	X18	Y18	Z18	X19	Y19	Z19	X20	Y20	Z20	X21	Y21	Z21	X22	Y22	Z22	X23	Y23	Z23	X24	Y24	Z24	X25	Y25	Z25	X26	Y26	Z26	X27	Y27	Z27	X28	Y28	Z28	X29	Y29	Z29	X30	Y30	Z30	X31	Y31	Z31	X32	Y32	Z32	X33	Y33	Z33	X34	Y34	Z34	X35	Y35	Z35	

40	30.475	-3470.901658444937	1454.196257872272	2513.122246956997	-3554.755004224207	1398.376662984238	2668.940069457409	-3570.829740597655	1140.495813043161	2529.636371634418	-3454.526058615388	920.5589705326059	2617.346483640012	-3449.644710760761	920.952551202876	2393.451833267094	-3230.473112778973	979.9439252805632	2458.056098886608	-3332.301408181307	912.7684297209358	2713.525346495072	-3373.513506400368	887.5686240484757	2317.242343080716	-3508.252279382027	731.0709224795887	2722.18840248473	-3346.286011718702	635.5529830993181	2705.893545888796	-3445.661429456708	580.9761552773144	2759.737563234741	-3450.930136031936	474.7297969155476	2760.64942073728	-3502.138058288315	431.9155621616908	2662.51695189112	-3368.498384433279	420.0611270900264	2716.532304077253	-3474.941760755791	332.6924631294413	2681.994569790871	-3375.430550808929	248.5143416038555	2782.757215237783	-3348.66801679276	93.85146820118179	2771.196874374376	-3381.840190567626	105.2254212845853	2680.754509653131	-3501.706762399834	56.44934247900488	2713.420363373712	-3470.898990305353	50.05714617671124	2812.367455093583	-3285.855745756947	82.15381469185414	2711.349288758124	-3446.694853621634	634.9184117203652	2275.124982786057	-3330.817742697666	650.9022840198903	2347.519087144178	-3534.291846983459	717.2220851967101	2394.634751123523	-3504.590478263987	478.8291564248664	2277.994693923364	-3519.393881845976	448.5658611062328	2395.1955756912	-3401.670960254119	257.9484824949037	2248.749985975628	-3369.692481118643	373.2442003398656	2315.263108786229	-3515.606891885053	327.180840506515	2321.573374563633	-3369.499646014483	100.7456728614083	2256.939063951421	-3405.795615693711	109.5096943819475	2349.400623218108	-3527.205255695425	60.96431138726749	2306.218485253988	-3482.857305846469	53.62772800773601	2220.675180673555	-3298.590364796021	87.33841082746848	2311.823438496755	-3225.627478435336	981.6943798180328	2568.463546964918	
41	30.48	-3473.022351081365	1451.203221872944	2513.033303632671	-3556.753390639227	1394.797870366019	2668.632188465759	-3570.948290830547	1136.812158011854	2529.494313428363	-3452.488932536485	918.0566862145253	2617.318969523941	-3448.092990922013	918.4102375263504	2393.447210916705	-3229.163248489376	978.7301809695737	2457.379269601754	-3329.929573979398	910.9898409341048	2713.227534684228	-3372.446917028644	886.2393628748345	2316.898344445603	-3506.949704233919	730.632394969558	2722.538731893887	-3345.781419366908	633.9511578482667	2706.243901319403	-3445.651056599559	580.165361562904	2760.284529682766	-3451.68239100893	474.4429006891594	2761.214552868974	-3503.148215783105	431.6625899985236	2663.261903846155	-3369.295936548505	420.0256107932552	2716.795139511344	-3475.731901113199	332.4910400673783	2682.563318482147	-3375.630132690204	248.4699603022345	2782.829107380041	-3348.657822536532	93.82889677896929	2771.030241615549	-3382.131950681594	105.3005548488079	2680.702969127857	-3501.751463209368	56.46872076868046	2713.71304817433	-3470.69732775283	50.06036168480363	2812.544490395062	-3285.974784026524	82.17576854017629	2711.020841234321	-3446.952701219688	633.9019277169114	2274.54529322847	-3330.506103052046	649.2329344323076	2346.27985843624	-3533.385507182428	716.3779715684	2394.714775789569	-3505.768610793605	478.2949571496127	2277.513047459308	-3520.297737654909	448.1745815905342	2394.767339446807	-3402.351875490141	257.6857396853579	2248.446359556317	-3370.614929382856	373.1494720445314	2314.755157964957	-3516.447002770238	326.7114370220105	2321.316948317929	-3369.581879338425	100.6999160216255	2256.947871913681	-3405.895829529881	109.4765756932625	2349.380295093436	-3527.25893778742	60.87120747721521	2306.162027325363	-3482.868920725669	53.58713315348774	2220.599412793023	-3298.631587133214	87.36768126729082	2311.818212881758	-3224.024811292102	980.3637289936	2567.764829539392	
42	30.485	-3475.129831538231	1448.129745700157	2512.959555133218	-3558.7292211238	1391.12851022046	2668.339401638491	-3571.067680926558	1133.055613019277	2529.368891891952	-3450.451188657962	915.5135106941897	2617.312356710254	-3446.565783124009	915.804018459224	2393.456751313016	-3227.866797588543	977.4397607389678	2456.689329012047	-3327.546897474766	909.1536990572789	2712.934322940009	-3371.416826903723	884.8523279785579	2316.555898633282	-3505.639403082273	730.1657838739787	2722.883311008944	-3345.277204408038	632.330527111222	2706.585825799206	-3445.644077106274	579.3378523959545	2760.816205823682	-3452.435325917452	474.14166281567	2761.771749842423	-3504.149315607209	431.3950518974423	2663.992828000844	-3370.093258022607	419.9740724714504	2717.060731882199	-3476.512937072805	332.2768943471722	2683.122591981327	-3375.838933873939	248.4152108993412	2782.907396991176	-3348.645253185101	93.80391339708622	2770.872110608372	-3382.416989007989	105.3697199338451	2680.653111425321	-3501.79237040024	56.48169392126655	2714.002818200865	-3470.494666794766	50.05627383915461	2812.718684720226	-3286.091995197285	82.19270297570525	2710.709228795683	-3447.25636827197	632.8620876347791	2273.98022726215	-3330.24551542691	647.5205954501931	2345.056678721899	-3532.509364619857	715.5012249709233	2394.805559146691	-3506.991888011602	477.7477294718853	2277.048790472884	-3521.244827109681	447.7686016364949	2394.355431956239	-3403.059301255407	257.428524416863	2248.148274147428	-3371.577051689357	373.057226926968	2314.257131099689	-3517.317448107479	326.2321419766342	2321.073663625402	-3369.672607044316	100.6557239430373	2256.954601843068	-3406.001216532813	109.449443293683	2349.36283246122	-3527.320267105441	60.77363432743282	2306.122699127838	-3482.892578530769	53.54415167229322	2220.537991880197	-3298.676136250476	87.40609251817904	2311.807841407389	-3222.426252845136	978.9568141888419	2567.054908554085	
43	30.49	-3477.222781838464	1444.977078600291	2512.901664082617	-3560.679644871426	1387.369801098376	2668.063742459218	-3571.187122962199	1129.226884574994	2529.262048534143	-3448.415785501192	912.9296858211452	2617.324178342951	-3445.063498520133	913.1349903124612	2393.478717006404	-3226.583589503134	976.0704804101425	2455.98831949512	-3325.159680136224	907.2632523167541	2712.646846729617	-3370.419833282977	883.4031000824853	2316.214254175952	-3504.326467275972	729.6697231032636	2723.217779524154	-3344.776166188275	630.6915574441808	2706.91974636458	-3445.643801250616	578.4932363148383	2761.330673054365	-3453.191996509128	473.824967583326	2762.319743675785	-3505.141065917836	431.1123706033715	2664.706217661275	-3370.89169063245	419.9060123515703	2717.330634324523	-3477.284451395335	332.0494259512502	2683.669320700299	-3376.059719474901	248.349451364803	2782.993505514024	-3348.630844078033	93.77712029043728	2770.724378560793	-3382.69244373067	105.4323484711373	2680.605605553035	-3501.829081873681	56.48828174230957	2714.28673872596	-3470.293249073854	50.04480027289435	2812.888264513764	-3286.206366128561	82.20474576925606	2710.417946394196	-3447.602771225247	631.7965064770062	2273.430686388399	-3330.035110373719	645.7618194196218	2343.855186589965	-3531.665311420734	714.5927982927855	2394.903077263826	-3508.258477539377	477.1871422616559	2276.60143478697	-3522.236169428844	447.3475680043437	2393.959032399765	-3403.791402404678	257.1768074040651	2247.857231310171	-3372.577982247351	372.9671705850702	2313.771196974418	-3518.217364270051	325.7426341964626	2320.842940458237	-3369.770892992145	100.6135627276132	2256.959590589195	-3406.112150996287	109.4277813952238	2349.348823764012	-3527.38868229595	60.67253712912126	2306.098320949724	-3482.926725330879	53.49955799510451	2220.489862554067	-3298.724178920263	87.45350872113028	2311.794080898578	-3220.833761471215	977.47430086852	2566.336247474224	
44	30.495	-3479.299972897298	1441.746617156573	2512.860135784346	-3562.602015727118	1383.523330966673	2667.807075127001	-3571.30582036664	1125.326937704077	2529.175490427421	-3446.385674146405	910.3052644988867	2617.351731563187	-3443.586167262844	910.4045498846757	2393.511232011833	-3225.313456356469	974.6206757446377	2455.278348209823	-3322.774365784393	905.3220338702887	2712.366116927746	-3369.452203096156	881.8876287646422	2315.872526081449	-3503.016077572433	729.1429949394606	2723.537702902323	-3344.281259860327	629.0346326075362	2707.246213473964	-3445.653724411147	577.6312116255505	2761.826199729518	-3453.955714193731	473.491878873558	2762.857275883391	-3506.123626065683	430.8141532599361	2665.398642792205	-3371.692896030452	419.8211455682148	2717.606238527057	-3478.046381405672	331.8081831222901	2684.200464539726	-3376.295308019701	248.2721773335849	2783.088595863333	-3348.615263385891	93.74917314605747	2770.588637291499	-3382.955787478823	105.4879365597667	2680.56086183242	-3501.861366115699	56.48850217002802	2714.561917255672	-3470.095325572408	50.02602967857976	2813.051480542522	-3286.317014792209	82.21218520873832	2710.149946865246	-3447.988213700474	630.7027061251019	2272.897490011378	-3329.873448779795	643.9533389731463	2342.68091738117	-3530.854856043833	713.6537948944779	2395.003338769562	-3509.566153656846	476.6129445827605	2276.170397328115	-3523.27226915901	446.9111356522992	2393.57722347497	-3404.546089876127	256.9304655918124	2247.574680763132	-3373.616498756989	372.8789299225618	2313.299531688755	-3519.14562964645	325.2426167950034	2320.62407008474	-3369.875809311313	100.5739297961201	2256.963208705753	-3406.228941020111	109.4109884089971	2349.338801479834	-3527.463483091369	60.56886583643441	2306.086632423125	-3482.969720115498	53.45408989042185	2220.453838624764	-3298.775862686953	87.50968090950795	2311.77874445613	-3219.249363171224	975.9173693107292	2565.611327800983	
45	30.5	-3481.360234035779	1438.439889752518	2512.835315281564	-3564.493895603563	1379.591061997567	2667.571070733086	-3571.422992148957	1121.357010222842	2529.110640030376	-3444.363786247654	907.6401169283781	2617.392128871685	-3442.133446966405	907.6144080880039	2393.552303174329	-3224.056247871416	973.0892143997314	2454.561590796029	-3320.397477361449	903.3337728694962	2712.093021435933	-3368.509937144519	880.3023219082017	2315.52972932318	-3501.713438063408	728.5845522130845	2723.838653912978	-3343.795588491092	627.3600525560885	2707.565914254461	-3445.677489162078	576.7515807837013	2762.30129785258	-3454.729973166498	473.1416476758302	2763.383126302709	-3507.097603683216	430.5001890977813	2666.066829018958	-3372.498823758365	419.7193907627547	2717.88875051327	-3478.799023149455	331.5528583803059	2684.713076088568	-3376.548521887296	248.1830180545932	2783.193547105937	-3348.599302944867	93.72075908582532	2770.466136732358	-3383.204897175	105.536060828866	2680.51903118878	-3501.88917018551	56.48236666133989	2714.82557331266	-3469.903105508207	50.00022525828073	2813.206657303716	-3286.423211958703	82.21545663773639	2709.907570845738	-3448.408451079689	629.5781705896584	2272.381359118168	-3329.758553037814	642.0921598161871	2341.539220980811	-3530.079122153461	712.685441709348	2395.102428405546	-3510.912339371577	476.0249720062464	2275.755005897936	-3524.353116338263	446.4589777011759	2393.209000600133	-3405.321073344147	256.6892914443803	2247.301992248506	-3374.69105775143	372.792063080814	2312.84425555581	-3520.100892181112	324.7318266460632	2320.416227521715	-3369.986468580836	100.5373273451718	2256.965872464403	-3406.351827973406	109.3983928811752	2349.333231307767	-3527.54385543115	60.46355397852496	2306.085356439469	-3483.019878463705	53.40843589782257	2220.428641358415	-3298.831313804195	87.5742503848635	2311.763662231342	-3217.675141721074	974.2876556244158	2564.882642576933	
